<svg width="398" height="161" viewBox="0 0 398 161" fill="none" xmlns="http://www.w3.org/2000/svg">
<rect width="398" height="161" fill="#D6FFC8"/>
<path d="M92.4375 103.062C92.0208 103.646 91.5417 104.083 91 104.375C90.4583 104.708 89.9375 104.938 89.4375 105.062C88.8542 105.229 88.2292 105.292 87.5625 105.25C87.3125 105.25 87.0417 105.188 86.75 105.062C86.5 104.979 86.2292 104.854 85.9375 104.688C85.6458 104.562 85.3958 104.354 85.1875 104.062C84.6042 101.979 84.0833 99.9583 83.625 98C83.1667 96.0417 82.7708 94.2917 82.4375 92.75C82.0208 90.9583 81.6667 89.2708 81.375 87.6875C80.25 87.6458 78.5625 87.6458 76.3125 87.6875C74.1042 87.6875 71.7083 87.8125 69.125 88.0625C68.3333 90.5625 67.7083 92.6667 67.25 94.375C66.7917 96.0833 66.4583 97.5 66.25 98.625C66.0417 99.75 65.9583 100.667 66 101.375C66.0417 102.125 66.1667 102.771 66.375 103.312C65.7917 103.896 65.2083 104.312 64.625 104.562C64.0833 104.854 63.5833 105.042 63.125 105.125C62.5833 105.25 62.0625 105.292 61.5625 105.25C60.8958 105.167 60.3542 105.042 59.9375 104.875C59.5208 104.75 59.2083 104.521 59 104.188C58.8333 103.896 58.7708 103.458 58.8125 102.875C58.8958 102.292 59.0625 101.521 59.3125 100.562C59.5625 99.7292 60.0208 98.25 60.6875 96.125C61.3958 93.9583 62.1875 91.5 63.0625 88.75C61.4792 88.875 60.25 88.7917 59.375 88.5C58.5417 88.2083 57.9583 87.4167 57.625 86.125C58.2917 85.9167 59 85.7292 59.75 85.5625C60.5417 85.3542 61.2917 85.1667 62 85C62.7917 84.8333 63.6042 84.6875 64.4375 84.5625C65.3125 81.8125 66.2083 79.1042 67.125 76.4375C68.0417 73.7708 68.8958 71.375 69.6875 69.25L73.3125 59.5625C73.3958 59.3125 73.8333 59.0417 74.625 58.75C75.4167 58.4583 76.2917 58.2292 77.25 58.0625C78.2083 57.8542 79.125 57.75 80 57.75C80.875 57.75 81.4375 57.9375 81.6875 58.3125C81.8125 59.1875 81.9792 60.2708 82.1875 61.5625C82.4375 62.8542 82.6667 64.1042 82.875 65.3125C83.125 66.7292 83.4167 68.1875 83.75 69.6875C84.125 71.7708 84.5208 74.0833 84.9375 76.625C85.3958 79.1667 85.9583 81.875 86.625 84.75C87.2917 87.625 88.0833 90.6042 89 93.6875C89.9167 96.7708 91.0625 99.8958 92.4375 103.062ZM75.0625 83.5C76.3958 83.4583 77.5 83.4375 78.375 83.4375C79.25 83.4375 80 83.4583 80.625 83.5L80.4375 82.5625C80.1875 81.0208 79.9167 79.375 79.625 77.625C79.375 75.875 79.1042 74.1458 78.8125 72.4375C78.5625 70.7292 78.3125 69.1042 78.0625 67.5625C77.8125 66.0208 77.6042 64.6667 77.4375 63.5C77.0208 64.5833 76.5417 65.8958 76 67.4375C75.4583 68.9375 74.875 70.5833 74.25 72.375C73.625 74.1667 72.9792 76.0417 72.3125 78C71.6875 79.9583 71.0625 81.8958 70.4375 83.8125C71.1875 83.7292 71.9375 83.6667 72.6875 83.625C73.4375 83.5833 74.2292 83.5417 75.0625 83.5ZM108.562 80.5C108.229 80.5 107.854 80.6875 107.438 81.0625C107.062 81.3958 106.688 81.875 106.312 82.5C105.938 83.0833 105.562 83.75 105.188 84.5C104.812 85.2083 104.479 85.9375 104.188 86.6875C103.479 88.4375 102.792 90.2292 102.125 92.0625C101.458 93.8958 101.062 95.4792 100.938 96.8125C100.896 96.9375 100.875 97.0625 100.875 97.1875C100.875 97.2708 100.875 97.3542 100.875 97.4375C100.833 97.5208 100.812 97.6458 100.812 97.8125C100.729 98.3958 100.604 98.875 100.438 99.25C100.312 99.5833 100.021 99.8125 99.5625 99.9375C99.0625 100.021 98.5625 100.083 98.0625 100.125C97.5625 100.167 97.0833 100.125 96.625 100C96.3333 99.9167 96.1042 99.7708 95.9375 99.5625C95.8125 99.3125 95.7083 99.0417 95.625 98.75C95.5833 98.4167 95.5417 98.1042 95.5 97.8125C95.5 97.5208 95.5 97.2708 95.5 97.0625C95.5 96.8125 95.5208 96.0417 95.5625 94.75C95.6042 93.4167 95.6458 91.9167 95.6875 90.25C95.7292 88.5833 95.75 86.9583 95.75 85.375C95.75 83.75 95.7292 82.5208 95.6875 81.6875C95.6042 81.1042 95.5208 80.5625 95.4375 80.0625C95.3542 79.6042 95.25 79.1458 95.125 78.6875C95.0417 78.2292 94.8958 77.8333 94.6875 77.5C95.1458 77.25 95.6042 77.0417 96.0625 76.875C96.5208 76.7083 96.9375 76.5833 97.3125 76.5C97.7708 76.375 98.1875 76.2917 98.5625 76.25C99.5625 76.1667 100.333 76.1667 100.875 76.25C101.458 76.3333 101.75 76.7708 101.75 77.5625C101.75 78.2708 101.688 79.375 101.562 80.875C101.479 82.3333 101.375 84.375 101.25 87C101.708 85.9583 102.25 84.7917 102.875 83.5C103.5 82.1667 104.167 80.9375 104.875 79.8125C105.583 78.6458 106.312 77.6875 107.062 76.9375C107.812 76.1458 108.521 75.75 109.188 75.75C109.646 75.75 110.167 75.8542 110.75 76.0625C111.375 76.2292 111.958 76.4792 112.5 76.8125C113.042 77.1042 113.521 77.4375 113.938 77.8125C114.396 78.1875 114.708 78.5625 114.875 78.9375C115.042 79.3542 115.146 80 115.188 80.875C115.229 81.75 115.229 82.7292 115.188 83.8125C115.521 83.0208 115.896 82.25 116.312 81.5C116.729 80.75 117.146 80.0625 117.562 79.4375C118.021 78.7708 118.479 78.2083 118.938 77.75C119.396 77.2917 119.812 76.9792 120.188 76.8125C120.688 76.6042 121.292 76.5625 122 76.6875C122.708 76.8125 123.396 77.0417 124.062 77.375C124.771 77.6667 125.375 78.0208 125.875 78.4375C126.417 78.8542 126.75 79.25 126.875 79.625C127 80.0417 127.104 80.6875 127.188 81.5625C127.271 82.4375 127.333 83.3958 127.375 84.4375C127.417 85.4792 127.438 86.5625 127.438 87.6875C127.438 88.7708 127.417 89.7292 127.375 90.5625C127.292 92.9792 127.312 94.8958 127.438 96.3125C127.562 97.6875 128.062 98.7083 128.938 99.375C128.354 99.75 127.812 100.021 127.312 100.188C126.812 100.396 126.375 100.542 126 100.625C125.542 100.75 125.146 100.812 124.812 100.812C124.354 100.812 123.979 100.688 123.688 100.438C123.396 100.229 123.167 99.9375 123 99.5625C122.833 99.1875 122.729 98.7708 122.688 98.3125C122.646 97.8542 122.625 97.3958 122.625 96.9375C122.625 96.5208 122.646 95.8333 122.688 94.875C122.771 93.875 122.833 92.75 122.875 91.5C122.917 90.25 122.917 88.9792 122.875 87.6875C122.833 86.3542 122.729 85.1458 122.562 84.0625C122.438 82.9375 122.208 82.0208 121.875 81.3125C121.542 80.6042 121.083 80.25 120.5 80.25C120 80.25 119.521 80.5625 119.062 81.1875C118.604 81.7708 118.167 82.5625 117.75 83.5625C117.333 84.5208 116.958 85.6042 116.625 86.8125C116.333 87.9792 116.062 89.1458 115.812 90.3125C115.562 91.4792 115.375 92.5625 115.25 93.5625C115.125 94.5208 115.062 95.2917 115.062 95.875L115 95.3125C115 96.1042 115 96.8333 115 97.5C115.042 98.1667 115.083 98.8333 115.125 99.5C115.167 99.75 114.938 99.9583 114.438 100.125C113.938 100.333 113.375 100.417 112.75 100.375C112.167 100.375 111.625 100.25 111.125 100C110.625 99.75 110.375 99.3333 110.375 98.75C110.375 98.3333 110.375 97.7083 110.375 96.875C110.375 96.0417 110.354 95.1042 110.312 94.0625C110.312 93.0208 110.292 91.9375 110.25 90.8125C110.25 89.6458 110.229 88.5417 110.188 87.5C110.188 86.7083 110.167 85.8958 110.125 85.0625C110.125 84.2292 110.083 83.4792 110 82.8125C109.917 82.1042 109.75 81.5417 109.5 81.125C109.292 80.7083 108.979 80.5 108.562 80.5ZM132.562 77.875C132.562 77.625 132.896 77.3542 133.562 77.0625C134.229 76.7708 134.958 76.5417 135.75 76.375C136.583 76.1667 137.333 76.0625 138 76.0625C138.708 76.0208 139.062 76.1667 139.062 76.5C139.062 77.125 139.021 78.0208 138.938 79.1875C138.854 80.3125 138.75 81.5208 138.625 82.8125C138.5 84.0625 138.375 85.3333 138.25 86.625C138.125 87.875 138.042 88.9375 138 89.8125C137.917 90.7292 137.833 91.7292 137.75 92.8125C137.667 93.7292 137.604 94.75 137.562 95.875C137.521 97 137.521 98.1458 137.562 99.3125C137.562 99.5208 137.354 99.7292 136.938 99.9375C136.521 100.146 136.062 100.292 135.562 100.375C135.062 100.5 134.583 100.562 134.125 100.562C133.667 100.562 133.417 100.479 133.375 100.312C133.292 100.146 133.208 99.8542 133.125 99.4375C133.042 99.0208 132.958 98.4375 132.875 97.6875C132.792 96.8958 132.729 95.8958 132.688 94.6875C132.646 93.4375 132.667 91.9375 132.75 90.1875C132.917 86.7292 132.938 84.0625 132.812 82.1875C132.688 80.2708 132.604 78.8333 132.562 77.875ZM136.938 65.4375C137.771 65.4375 138.562 65.6875 139.312 66.1875C140.062 66.6875 140.438 67.3542 140.438 68.1875C140.438 68.8125 140.271 69.4167 139.938 70C139.646 70.5833 139.271 71.1042 138.812 71.5625C138.354 72.0208 137.833 72.3958 137.25 72.6875C136.667 72.9375 136.125 73.0625 135.625 73.0625C134.958 73.0625 134.417 72.9583 134 72.75C133.583 72.5 133.25 72.2292 133 71.9375C132.792 71.6042 132.646 71.25 132.562 70.875C132.479 70.5 132.438 70.1458 132.438 69.8125C132.438 69.3958 132.5 68.9375 132.625 68.4375C132.75 67.8958 132.979 67.4167 133.312 67C133.646 66.5417 134.104 66.1667 134.688 65.875C135.271 65.5833 136.021 65.4375 136.938 65.4375ZM135.375 71.25C135.625 71.25 135.896 71.1667 136.188 71C136.521 70.7917 136.812 70.5625 137.062 70.3125C137.354 70.0625 137.583 69.7917 137.75 69.5C137.958 69.2083 138.062 68.9583 138.062 68.75C138.062 68.4167 137.896 68.25 137.562 68.25C137.354 68.25 137.083 68.3333 136.75 68.5C136.458 68.6667 136.167 68.875 135.875 69.125C135.583 69.3333 135.333 69.5833 135.125 69.875C134.958 70.125 134.875 70.375 134.875 70.625C134.875 71.0417 135.042 71.25 135.375 71.25ZM150.25 100.562C149.375 100.562 148.479 100.333 147.562 99.875C146.646 99.4167 145.792 98.7292 145 97.8125C144.208 96.8542 143.562 95.6875 143.062 94.3125C142.562 92.8958 142.312 91.25 142.312 89.375C142.312 86.625 142.667 84.3542 143.375 82.5625C144.083 80.7292 144.938 79.2708 145.938 78.1875C146.979 77.0625 148.104 76.2708 149.312 75.8125C150.521 75.3542 151.625 75.125 152.625 75.125C153.667 75.125 154.521 75.3125 155.188 75.6875C155.896 76.0208 156.479 76.4167 156.938 76.875V75.6875C157.188 75.4792 157.458 75.2917 157.75 75.125C158.083 74.9583 158.417 74.8333 158.75 74.75C159.083 74.625 159.438 74.5625 159.812 74.5625H160.75C161 74.6042 161.25 74.6458 161.5 74.6875C161.792 74.7292 162 74.8333 162.125 75C161.875 80.4583 161.667 84.875 161.5 88.25C161.333 91.625 161.208 94.25 161.125 96.125C161 98.3333 160.917 99.9375 160.875 100.938C160.792 102.688 160.562 104.417 160.188 106.125C159.812 107.875 159.229 109.438 158.438 110.812C157.646 112.188 156.604 113.292 155.312 114.125C154.021 114.958 152.438 115.375 150.562 115.375C148.938 115.375 147.625 115.062 146.625 114.438C145.667 113.812 144.917 113.042 144.375 112.125C143.875 111.208 143.542 110.229 143.375 109.188C143.208 108.188 143.125 107.271 143.125 106.438C143.125 106.229 143.229 105.917 143.438 105.5C143.688 105.083 144.021 104.646 144.438 104.188C144.896 103.771 145.458 103.396 146.125 103.062C146.792 102.729 147.542 102.521 148.375 102.438C148 103.562 147.771 104.583 147.688 105.5C147.604 106 147.583 106.5 147.625 107C147.625 108.375 147.896 109.521 148.438 110.438C148.979 111.354 149.812 111.812 150.938 111.812C152.146 111.812 153.125 111.292 153.875 110.25C154.625 109.25 155.188 108.021 155.562 106.562C155.979 105.146 156.25 103.646 156.375 102.062C156.542 100.521 156.625 99.2083 156.625 98.125V96.3125C156.375 96.7708 156.062 97.25 155.688 97.75C155.354 98.25 154.938 98.7083 154.438 99.125C153.938 99.5417 153.333 99.875 152.625 100.125C151.958 100.417 151.167 100.562 150.25 100.562ZM152.812 78.6875C152.104 78.6875 151.417 79 150.75 79.625C150.125 80.25 149.562 81.0833 149.062 82.125C148.562 83.125 148.167 84.2708 147.875 85.5625C147.583 86.8542 147.438 88.1458 147.438 89.4375C147.438 90.2708 147.479 91.125 147.562 92C147.688 92.875 147.896 93.6875 148.188 94.4375C148.521 95.1458 148.938 95.7292 149.438 96.1875C149.938 96.6458 150.604 96.875 151.438 96.875C152.062 96.8333 152.646 96.5833 153.188 96.125C153.646 95.75 154.104 95.1458 154.562 94.3125C155.062 93.4792 155.458 92.2917 155.75 90.75C156.083 91.0833 156.333 91.3958 156.5 91.6875C156.708 91.9792 156.875 92.25 157 92.5C157.042 92.1667 157.062 91.7708 157.062 91.3125C157.104 90.8542 157.125 90.3333 157.125 89.75C157.125 88.625 157.062 87.4167 156.938 86.125C156.812 84.7917 156.583 83.5833 156.25 82.5C155.958 81.4167 155.521 80.5208 154.938 79.8125C154.396 79.0625 153.688 78.6875 152.812 78.6875ZM183.25 89.25C183.167 90.875 182.875 92.375 182.375 93.75C181.917 95.125 181.271 96.3333 180.438 97.375C179.604 98.375 178.604 99.1667 177.438 99.75C176.312 100.333 175.062 100.646 173.688 100.688C172.479 100.729 171.333 100.438 170.25 99.8125C169.208 99.1875 168.292 98.3125 167.5 97.1875C166.708 96.0625 166.104 94.7292 165.688 93.1875C165.312 91.6042 165.208 89.8958 165.375 88.0625C165.5 85.9375 165.896 84.125 166.562 82.625C167.229 81.0833 167.938 79.8125 168.688 78.8125C169.438 77.8125 170.125 77.0833 170.75 76.625C171.417 76.125 171.833 75.8333 172 75.75C172.292 75.625 172.562 75.6042 172.812 75.6875C173.062 75.7292 173.333 75.7917 173.625 75.875C173.708 75.9167 173.792 76.0208 173.875 76.1875C174.042 76.4792 174.146 77.0208 174.188 77.8125C174.396 77.3542 174.667 76.9792 175 76.6875C175.333 76.3958 175.667 76.1875 176 76.0625C176.417 75.8958 176.833 75.7917 177.25 75.75C177.542 75.7083 178.042 75.9375 178.75 76.4375C179.5 76.9375 180.208 77.7292 180.875 78.8125C181.583 79.8958 182.188 81.3125 182.688 83.0625C183.188 84.7708 183.375 86.8333 183.25 89.25ZM179 88.5C179.042 87.5 179 86.5 178.875 85.5C178.792 84.4583 178.625 83.5208 178.375 82.6875C178.167 81.8125 177.896 81.125 177.562 80.625C177.229 80.0833 176.896 79.8125 176.562 79.8125C176.188 79.8958 175.771 80.0833 175.312 80.375C174.938 80.625 174.521 81.0208 174.062 81.5625C173.604 82.1042 173.167 82.875 172.75 83.875C172.708 83.75 172.667 83.5208 172.625 83.1875C172.583 82.8958 172.542 82.5208 172.5 82.0625C172.5 81.5625 172.542 80.8958 172.625 80.0625C172.042 80.7708 171.583 81.6042 171.25 82.5625C170.958 83.5208 170.729 84.4375 170.562 85.3125C170.396 86.3542 170.271 87.3958 170.188 88.4375C170.146 89.5625 170.188 90.6667 170.312 91.75C170.479 92.8333 170.729 93.7917 171.062 94.625C171.438 95.4583 171.875 96.125 172.375 96.625C172.875 97.125 173.479 97.3542 174.188 97.3125C174.896 97.2708 175.521 96.9792 176.062 96.4375C176.604 95.8958 177.083 95.2083 177.5 94.375C177.917 93.5417 178.25 92.6042 178.5 91.5625C178.75 90.5208 178.917 89.5 179 88.5ZM208.562 88.6875C207.854 89.2708 207.458 90.3125 207.375 91.8125C207.333 93.2708 207.583 94.7708 208.125 96.3125C208.708 97.8125 209.583 99.1458 210.75 100.312C211.917 101.479 213.375 102.062 215.125 102.062C216.25 102.062 217.208 101.792 218 101.25C218.833 100.708 219.5 100.042 220 99.25C220.542 98.4167 220.938 97.5 221.188 96.5C221.438 95.5 221.562 94.5208 221.562 93.5625C221.562 92.1875 221.292 91.0417 220.75 90.125C220.25 89.2083 219.562 88.4167 218.688 87.75C217.854 87.0417 216.875 86.4583 215.75 86C214.667 85.5 213.562 85 212.438 84.5C211.396 84.0833 210.146 83.5625 208.688 82.9375C207.229 82.2708 205.833 81.4167 204.5 80.375C203.167 79.2917 202.021 77.9792 201.062 76.4375C200.146 74.8542 199.688 72.9167 199.688 70.625C199.688 69.125 200.083 67.6042 200.875 66.0625C201.667 64.5208 202.792 63.125 204.25 61.875C205.708 60.5833 207.458 59.5417 209.5 58.75C211.583 57.9583 213.917 57.5625 216.5 57.5625C219.042 57.5625 221.104 57.7917 222.688 58.25C224.271 58.7083 225.5 59.3125 226.375 60.0625C227.25 60.7708 227.833 61.5625 228.125 62.4375C228.458 63.2708 228.625 64.0625 228.625 64.8125C228.625 65.5625 228.396 66.3333 227.938 67.125C227.479 67.875 226.938 68.5833 226.312 69.25C225.688 69.875 225.042 70.4375 224.375 70.9375C223.708 71.3958 223.167 71.7083 222.75 71.875C222.958 71.3333 223.167 70.5833 223.375 69.625C223.583 68.6667 223.521 67.7083 223.188 66.75C222.896 65.7917 222.167 64.9583 221 64.25C219.875 63.5417 218.042 63.1875 215.5 63.1875C214.042 63.1875 212.625 63.4167 211.25 63.875C209.875 64.3333 208.646 64.9375 207.562 65.6875C206.521 66.3958 205.688 67.2083 205.062 68.125C204.438 69.0417 204.125 69.9792 204.125 70.9375C204.125 71.8542 204.438 72.7083 205.062 73.5C205.729 74.25 206.604 74.9792 207.688 75.6875C208.812 76.3542 210.083 77.0208 211.5 77.6875C212.958 78.3542 214.479 79.0208 216.062 79.6875C217.604 80.3542 219.125 81.0833 220.625 81.875C222.125 82.625 223.458 83.5 224.625 84.5C225.833 85.5 226.792 86.625 227.5 87.875C228.208 89.125 228.562 90.5625 228.562 92.1875C228.562 93.9375 228.229 95.625 227.562 97.25C226.938 98.8333 226.021 100.229 224.812 101.438C223.646 102.646 222.208 103.604 220.5 104.312C218.792 105.062 216.854 105.438 214.688 105.438C212.771 105.438 210.958 105.125 209.25 104.5C207.542 103.875 206.042 103.062 204.75 102.062C203.5 101.062 202.5 99.9583 201.75 98.75C201 97.5417 200.625 96.3542 200.625 95.1875C200.625 93.9375 200.896 92.875 201.438 92C202.021 91.125 202.729 90.4375 203.562 89.9375C204.396 89.3958 205.25 89.0208 206.125 88.8125C207.042 88.6042 207.854 88.5625 208.562 88.6875ZM240.938 100.688C238.021 100.688 235.771 99.7083 234.188 97.75C232.604 95.7917 231.812 93.2292 231.812 90.0625C231.812 87.8542 232.125 85.7917 232.75 83.875C233.417 81.9167 234.292 80.2292 235.375 78.8125C236.458 77.3958 237.708 76.2917 239.125 75.5C240.583 74.6667 242.104 74.25 243.688 74.25C245.229 74.25 246.542 74.8125 247.625 75.9375C248.708 77.0208 249.25 78.5833 249.25 80.625C249.25 81.9583 248.958 83.2917 248.375 84.625C247.792 85.9167 247.021 87.0833 246.062 88.125C245.146 89.125 244.125 89.9375 243 90.5625C241.875 91.1875 240.792 91.5 239.75 91.5C239.083 91.5 238.521 91.4167 238.062 91.25C237.604 91.0833 237.188 90.8333 236.812 90.5C236.938 92.875 237.458 94.5417 238.375 95.5C239.292 96.4167 240.479 96.875 241.938 96.875C242.938 96.875 243.812 96.6667 244.562 96.25C245.354 95.8333 246.021 95.3542 246.562 94.8125C247.104 94.2708 247.542 93.7292 247.875 93.1875C248.208 92.6042 248.438 92.1667 248.562 91.875C248.688 91.625 248.896 91.5 249.188 91.5C249.521 91.5 249.688 91.75 249.688 92.25C249.688 92.7083 249.521 93.4167 249.188 94.375C248.896 95.2917 248.396 96.2292 247.688 97.1875C246.979 98.1042 246.062 98.9167 244.938 99.625C243.854 100.333 242.521 100.688 240.938 100.688ZM243.812 76.9375C243.562 76.9375 243.083 77.2083 242.375 77.75C241.708 78.25 240.979 79 240.188 80C239.438 81 238.729 82.2083 238.062 83.625C237.438 85 237.042 86.5625 236.875 88.3125C239.375 87.7292 241.354 86.8125 242.812 85.5625C244.271 84.3125 245 82.4792 245 80.0625C245 78.8542 244.854 78.0417 244.562 77.625C244.271 77.1667 244.021 76.9375 243.812 76.9375ZM270.438 92.125C270.438 92.5833 270.271 93.2917 269.938 94.25C269.646 95.1667 269.146 96.1042 268.438 97.0625C267.729 97.9792 266.812 98.7917 265.688 99.5C264.604 100.208 263.271 100.562 261.688 100.562C259.438 100.562 257.542 99.9583 256 98.75C254.5 97.5 253.438 95.7292 252.812 93.4375C252.312 91.5208 252.167 89.4792 252.375 87.3125C252.625 85.1042 253.229 83.0625 254.188 81.1875C255.146 79.3125 256.479 77.7292 258.188 76.4375C259.896 75.1042 261.979 74.375 264.438 74.25C265.688 74.2083 266.729 74.4375 267.562 74.9375C268.396 75.4375 269.042 76.0833 269.5 76.875C269.958 77.6667 270.229 78.5417 270.312 79.5C270.396 80.4167 270.292 81.2917 270 82.125C269.75 82.9583 269.333 83.6667 268.75 84.25C268.208 84.7917 267.5 85.0833 266.625 85.125C265.75 85.2083 265.021 85.1042 264.438 84.8125C263.896 84.4792 263.458 84.0833 263.125 83.625C262.833 83.1667 262.625 82.6875 262.5 82.1875C262.417 81.6875 262.417 81.25 262.5 80.875C262.625 80.3333 262.833 79.8333 263.125 79.375C263.375 78.9583 263.729 78.5417 264.188 78.125C264.688 77.7083 265.333 77.375 266.125 77.125C266 77.0417 265.875 77 265.75 77C265.625 77 265.5 76.9792 265.375 76.9375C265.208 76.9375 265.083 76.9167 265 76.875C264.333 76.875 263.562 77.1042 262.688 77.5625C261.854 78.0208 261.042 78.75 260.25 79.75C259.5 80.75 258.854 82.0417 258.312 83.625C257.812 85.1667 257.562 87.0417 257.562 89.25C257.562 90.2083 257.667 91.1667 257.875 92.125C258.083 93.0417 258.396 93.875 258.812 94.625C259.271 95.3333 259.812 95.9167 260.438 96.375C261.104 96.7917 261.875 97 262.75 97C263.75 97 264.625 96.7917 265.375 96.375C266.167 95.9167 266.833 95.3958 267.375 94.8125C267.917 94.2292 268.333 93.6458 268.625 93.0625C268.958 92.4792 269.188 92.0417 269.312 91.75C269.438 91.5 269.646 91.375 269.938 91.375C270.271 91.375 270.438 91.625 270.438 92.125ZM291 80.8125C291 81.3958 290.833 82 290.5 82.625C290.208 83.2083 289.833 83.7708 289.375 84.3125C288.917 84.8542 288.396 85.3333 287.812 85.75C287.271 86.125 286.75 86.3542 286.25 86.4375C286.583 85.1458 286.688 84.1458 286.562 83.4375C286.438 82.7292 286.229 82.2083 285.938 81.875C285.604 81.5 285.188 81.2917 284.688 81.25C283.938 81.25 283.208 81.6875 282.5 82.5625C281.833 83.3958 281.25 84.4375 280.75 85.6875C280.25 86.8958 279.854 88.2083 279.562 89.625C279.271 91 279.125 92.25 279.125 93.375C279.083 94.1667 279.104 94.9375 279.188 95.6875C279.229 96.3125 279.292 96.9583 279.375 97.625C279.5 98.2917 279.667 98.8125 279.875 99.1875C279.625 99.3958 279.208 99.6458 278.625 99.9375C278.083 100.229 277.5 100.417 276.875 100.5C276.292 100.583 275.75 100.479 275.25 100.188C274.792 99.8958 274.542 99.2708 274.5 98.3125C274.417 97.3958 274.354 96.375 274.312 95.25C274.312 94.0833 274.312 92.9375 274.312 91.8125C274.354 90.6458 274.396 89.5 274.438 88.375C274.479 87.25 274.542 86.2083 274.625 85.25C274.708 83.4167 274.75 82 274.75 81C274.75 80 274.729 79.0417 274.688 78.125C274.688 77.9583 274.958 77.7292 275.5 77.4375C276.083 77.1042 276.708 76.8125 277.375 76.5625C278.083 76.3125 278.729 76.1667 279.312 76.125C279.896 76.0833 280.188 76.2083 280.188 76.5C280.188 76.9583 280.125 77.875 280 79.25C279.917 80.5833 279.792 81.9792 279.625 83.4375C279.917 82.6458 280.292 81.7917 280.75 80.875C281.25 79.9583 281.812 79.1042 282.438 78.3125C283.062 77.5208 283.771 76.875 284.562 76.375C285.354 75.8333 286.229 75.5625 287.188 75.5625C287.938 75.5625 288.542 75.7917 289 76.25C289.5 76.7083 289.896 77.2292 290.188 77.8125C290.479 78.3958 290.688 78.9792 290.812 79.5625C290.938 80.1458 291 80.5625 291 80.8125ZM301.375 100.688C298.458 100.688 296.208 99.7083 294.625 97.75C293.042 95.7917 292.25 93.2292 292.25 90.0625C292.25 87.8542 292.562 85.7917 293.188 83.875C293.854 81.9167 294.729 80.2292 295.812 78.8125C296.896 77.3958 298.146 76.2917 299.562 75.5C301.021 74.6667 302.542 74.25 304.125 74.25C305.667 74.25 306.979 74.8125 308.062 75.9375C309.146 77.0208 309.688 78.5833 309.688 80.625C309.688 81.9583 309.396 83.2917 308.812 84.625C308.229 85.9167 307.458 87.0833 306.5 88.125C305.583 89.125 304.562 89.9375 303.438 90.5625C302.312 91.1875 301.229 91.5 300.188 91.5C299.521 91.5 298.958 91.4167 298.5 91.25C298.042 91.0833 297.625 90.8333 297.25 90.5C297.375 92.875 297.896 94.5417 298.812 95.5C299.729 96.4167 300.917 96.875 302.375 96.875C303.375 96.875 304.25 96.6667 305 96.25C305.792 95.8333 306.458 95.3542 307 94.8125C307.542 94.2708 307.979 93.7292 308.312 93.1875C308.646 92.6042 308.875 92.1667 309 91.875C309.125 91.625 309.333 91.5 309.625 91.5C309.958 91.5 310.125 91.75 310.125 92.25C310.125 92.7083 309.958 93.4167 309.625 94.375C309.333 95.2917 308.833 96.2292 308.125 97.1875C307.417 98.1042 306.5 98.9167 305.375 99.625C304.292 100.333 302.958 100.688 301.375 100.688ZM304.25 76.9375C304 76.9375 303.521 77.2083 302.812 77.75C302.146 78.25 301.417 79 300.625 80C299.875 81 299.167 82.2083 298.5 83.625C297.875 85 297.479 86.5625 297.312 88.3125C299.812 87.7292 301.792 86.8125 303.25 85.5625C304.708 84.3125 305.438 82.4792 305.438 80.0625C305.438 78.8542 305.292 78.0417 305 77.625C304.708 77.1667 304.458 76.9375 304.25 76.9375ZM337.25 72.1875C336.792 72.1042 336.167 72.0208 335.375 71.9375C334.625 71.8542 333.854 71.7917 333.062 71.75C332.146 71.7083 331.167 71.6875 330.125 71.6875C329.083 71.6042 327.771 71.6042 326.188 71.6875C324.646 71.7292 323.021 71.75 321.312 71.75C321.271 72.8333 321.188 73.9375 321.062 75.0625C320.979 76.1875 320.896 77.2917 320.812 78.375C320.604 80.375 320.417 82.4167 320.25 84.5C320.125 86.5833 320.062 88.5625 320.062 90.4375C320.062 92.3125 320.167 94.0208 320.375 95.5625C320.625 97.0625 321.062 98.25 321.688 99.125C321.188 99.5 320.646 99.7917 320.062 100C319.479 100.167 318.958 100.292 318.5 100.375C317.958 100.5 317.417 100.562 316.875 100.562C316.375 100.562 315.958 100.396 315.625 100.062C315.292 99.7292 315.104 99.1458 315.062 98.3125C314.979 96.8958 314.958 95.4792 315 94.0625C315.083 92.6042 315.167 91.0833 315.25 89.5C315.375 87.9167 315.5 86.2292 315.625 84.4375C315.75 82.6042 315.875 80.6042 316 78.4375C316.125 76.1875 316.188 74 316.188 71.875C314.604 71.9167 313.271 71.9375 312.188 71.9375C311.104 71.9375 310.5 71.9167 310.375 71.875C310.25 71.7917 310.104 71.6042 309.938 71.3125C309.771 71.0625 309.562 70.6875 309.312 70.1875C309.021 69.6875 308.667 68.9792 308.25 68.0625C309.042 68.0625 309.917 68.0625 310.875 68.0625C311.792 68.0625 312.646 68.0417 313.438 68C314.354 67.9583 315.271 67.9167 316.188 67.875C316.146 67.2083 316.125 66.5 316.125 65.75C316.083 65.1667 316.062 64.5208 316.062 63.8125C316.062 63.0625 316.042 62.375 316 61.75C316 61.5 316.292 61.2083 316.875 60.875C317.5 60.5 318.167 60.1667 318.875 59.875C319.583 59.5833 320.229 59.3958 320.812 59.3125C321.438 59.2292 321.75 59.375 321.75 59.75C321.75 60.125 321.729 61.0417 321.688 62.5C321.688 63.9167 321.646 65.6458 321.562 67.6875C321.979 67.6875 322.292 67.6667 322.5 67.625C324.708 67.5417 326.479 67.4583 327.812 67.375C329.188 67.25 330.312 67.2292 331.188 67.3125C332.062 67.3958 332.833 67.6042 333.5 67.9375C334.167 68.2708 334.917 68.8125 335.75 69.5625C336.042 69.8125 336.292 70.0833 336.5 70.375C336.708 70.625 336.875 70.9167 337 71.25C337.167 71.5417 337.25 71.8542 337.25 72.1875ZM344 89.25C343.917 90.875 343.625 92.375 343.125 93.75C342.667 95.125 342.021 96.3333 341.188 97.375C340.354 98.375 339.354 99.1667 338.188 99.75C337.062 100.333 335.812 100.646 334.438 100.688C333.229 100.729 332.083 100.438 331 99.8125C329.958 99.1875 329.042 98.3125 328.25 97.1875C327.458 96.0625 326.854 94.7292 326.438 93.1875C326.062 91.6042 325.958 89.8958 326.125 88.0625C326.25 85.9375 326.646 84.125 327.312 82.625C327.979 81.0833 328.688 79.8125 329.438 78.8125C330.188 77.8125 330.875 77.0833 331.5 76.625C332.167 76.125 332.583 75.8333 332.75 75.75C333.042 75.625 333.312 75.6042 333.562 75.6875C333.812 75.7292 334.083 75.7917 334.375 75.875C334.458 75.9167 334.542 76.0208 334.625 76.1875C334.792 76.4792 334.896 77.0208 334.938 77.8125C335.146 77.3542 335.417 76.9792 335.75 76.6875C336.083 76.3958 336.417 76.1875 336.75 76.0625C337.167 75.8958 337.583 75.7917 338 75.75C338.292 75.7083 338.792 75.9375 339.5 76.4375C340.25 76.9375 340.958 77.7292 341.625 78.8125C342.333 79.8958 342.938 81.3125 343.438 83.0625C343.938 84.7708 344.125 86.8333 344 89.25ZM339.75 88.5C339.792 87.5 339.75 86.5 339.625 85.5C339.542 84.4583 339.375 83.5208 339.125 82.6875C338.917 81.8125 338.646 81.125 338.312 80.625C337.979 80.0833 337.646 79.8125 337.312 79.8125C336.938 79.8958 336.521 80.0833 336.062 80.375C335.688 80.625 335.271 81.0208 334.812 81.5625C334.354 82.1042 333.917 82.875 333.5 83.875C333.458 83.75 333.417 83.5208 333.375 83.1875C333.333 82.8958 333.292 82.5208 333.25 82.0625C333.25 81.5625 333.292 80.8958 333.375 80.0625C332.792 80.7708 332.333 81.6042 332 82.5625C331.708 83.5208 331.479 84.4375 331.312 85.3125C331.146 86.3542 331.021 87.3958 330.938 88.4375C330.896 89.5625 330.938 90.6667 331.062 91.75C331.229 92.8333 331.479 93.7917 331.812 94.625C332.188 95.4583 332.625 96.125 333.125 96.625C333.625 97.125 334.229 97.3542 334.938 97.3125C335.646 97.2708 336.271 96.9792 336.812 96.4375C337.354 95.8958 337.833 95.2083 338.25 94.375C338.667 93.5417 339 92.6042 339.25 91.5625C339.5 90.5208 339.667 89.5 339.75 88.5Z" fill="black"/>
</svg>
